<mxfile host="65bd71144e">
    <diagram id="gaml3kTW6ZlZ9NfRn7y_" name="Page-1">
        <mxGraphModel dx="1994" dy="2060" grid="1" gridSize="10" guides="1" tooltips="1" connect="1" arrows="1" fold="1" page="1" pageScale="1" pageWidth="827" pageHeight="1169" math="0" shadow="0">
            <root>
                <mxCell id="0"/>
                <mxCell id="1" parent="0"/>
                <mxCell id="58" style="edgeStyle=none;html=1;exitX=0.5;exitY=0.5;exitDx=0;exitDy=0;exitPerimeter=0;entryX=0.5;entryY=1;entryDx=0;entryDy=0;strokeColor=#000000;strokeWidth=2;fontSize=12;fontColor=#999900;endArrow=none;endFill=0;dashed=1;" edge="1" parent="1" source="57" target="56">
                    <mxGeometry relative="1" as="geometry"/>
                </mxCell>
                <mxCell id="72" value="" style="rounded=0;whiteSpace=wrap;html=1;strokeColor=default;fontSize=12;fontColor=#009900;fillColor=none;" vertex="1" parent="1">
                    <mxGeometry y="860" width="570" height="120" as="geometry"/>
                </mxCell>
                <mxCell id="2" value="" style="rounded=0;whiteSpace=wrap;html=1;fillColor=none;strokeColor=#000000;" parent="1" vertex="1">
                    <mxGeometry y="30" width="1160" height="700" as="geometry"/>
                </mxCell>
                <mxCell id="4" value="sopnode-m2" style="text;html=1;align=center;verticalAlign=middle;whiteSpace=wrap;rounded=0;fillColor=default;" vertex="1" parent="1">
                    <mxGeometry x="10" y="10" width="90" height="30" as="geometry"/>
                </mxCell>
                <mxCell id="25" style="edgeStyle=none;html=1;exitX=0.5;exitY=0;exitDx=0;exitDy=0;entryX=0.5;entryY=1;entryDx=0;entryDy=0;dashed=1;strokeColor=#FF0000;endArrow=none;endFill=0;" edge="1" parent="1" source="13" target="24">
                    <mxGeometry relative="1" as="geometry"/>
                </mxCell>
                <mxCell id="13" value="&lt;p style=&quot;margin: 0px; font-variant-numeric: normal; font-variant-east-asian: normal; font-variant-alternates: normal; font-kerning: auto; font-optical-sizing: auto; font-feature-settings: normal; font-variation-settings: normal; font-stretch: normal; line-height: normal; font-family: &amp;quot;Helvetica Neue&amp;quot;;&quot; class=&quot;p1&quot;&gt;&lt;b style=&quot;&quot;&gt;&lt;font style=&quot;font-size: 12px;&quot;&gt;ens3f1&lt;/font&gt;&lt;/b&gt;&lt;/p&gt;&lt;p style=&quot;margin: 0px; font-variant-numeric: normal; font-variant-east-asian: normal; font-variant-alternates: normal; font-kerning: auto; font-optical-sizing: auto; font-feature-settings: normal; font-variation-settings: normal; font-stretch: normal; line-height: normal; font-family: &amp;quot;Helvetica Neue&amp;quot;;&quot; class=&quot;p1&quot;&gt;&lt;b style=&quot;border-color: var(--border-color); font-family: Helvetica;&quot;&gt;&lt;font style=&quot;font-size: 12px;&quot;&gt;192.168.128.220/27&lt;/font&gt;&lt;/b&gt;&lt;b style=&quot;font-size: 13px;&quot;&gt;&lt;br&gt;&lt;/b&gt;&lt;/p&gt;" style="rounded=0;whiteSpace=wrap;html=1;fillColor=default;verticalAlign=top;" vertex="1" parent="1">
                    <mxGeometry x="53" y="710" width="170" height="40" as="geometry"/>
                </mxCell>
                <mxCell id="22" value="&lt;p style=&quot;margin: 0px; font-variant-numeric: normal; font-variant-east-asian: normal; font-variant-alternates: normal; font-kerning: auto; font-optical-sizing: auto; font-feature-settings: normal; font-variation-settings: normal; font-stretch: normal; line-height: normal; font-family: &amp;quot;Helvetica Neue&amp;quot;;&quot; class=&quot;p1&quot;&gt;&lt;b style=&quot;&quot;&gt;&lt;font style=&quot;font-size: 12px;&quot;&gt;&lt;font color=&quot;#009900&quot;&gt;demo-fake&lt;/font&gt;@ens3f1&lt;br&gt;&lt;/font&gt;&lt;/b&gt;&lt;/p&gt;&lt;p style=&quot;margin: 0px; font-variant-numeric: normal; font-variant-east-asian: normal; font-variant-alternates: normal; font-kerning: auto; font-optical-sizing: auto; font-feature-settings: normal; font-variation-settings: normal; font-stretch: normal; line-height: normal; font-family: &amp;quot;Helvetica Neue&amp;quot;;&quot; class=&quot;p1&quot;&gt;&lt;b style=&quot;border-color: var(--border-color); font-family: Helvetica;&quot;&gt;&lt;font color=&quot;#009900&quot; style=&quot;font-size: 12px;&quot;&gt;192.168.128.226/27&lt;/font&gt;&lt;/b&gt;&lt;b style=&quot;font-size: 13px;&quot;&gt;&lt;br&gt;&lt;/b&gt;&lt;/p&gt;" style="rounded=0;whiteSpace=wrap;html=1;fillColor=default;verticalAlign=top;" vertex="1" parent="1">
                    <mxGeometry x="53" y="520" width="170" height="40" as="geometry"/>
                </mxCell>
                <mxCell id="26" style="edgeStyle=none;html=1;exitX=0.5;exitY=0;exitDx=0;exitDy=0;dashed=1;strokeColor=#FF0000;endArrow=none;endFill=0;" edge="1" parent="1" source="24" target="22">
                    <mxGeometry relative="1" as="geometry"/>
                </mxCell>
                <mxCell id="24" value="&lt;p style=&quot;margin: 0px; font-variant-numeric: normal; font-variant-east-asian: normal; font-variant-alternates: normal; font-kerning: auto; font-optical-sizing: auto; font-feature-settings: normal; font-variation-settings: normal; font-stretch: normal; font-size: 13px; line-height: normal; font-family: &amp;quot;Helvetica Neue&amp;quot;; text-align: start;&quot; class=&quot;p1&quot;&gt;&lt;b&gt;MACVLAN&lt;/b&gt;&lt;/p&gt;" style="rounded=0;whiteSpace=wrap;html=1;fillColor=#dae8fc;strokeColor=#000000;" vertex="1" parent="1">
                    <mxGeometry x="53" y="624.5" width="170" height="20" as="geometry"/>
                </mxCell>
                <mxCell id="10" value="" style="rounded=0;whiteSpace=wrap;html=1;fillColor=none;strokeColor=#000000;" vertex="1" parent="1">
                    <mxGeometry x="40" y="73.13" width="1080" height="446.88" as="geometry"/>
                </mxCell>
                <mxCell id="11" value="core (KVM)" style="text;html=1;align=center;verticalAlign=middle;whiteSpace=wrap;rounded=0;fillColor=default;" vertex="1" parent="1">
                    <mxGeometry x="50" y="60" width="80" height="26.25" as="geometry"/>
                </mxCell>
                <mxCell id="29" value="&lt;p style=&quot;margin: 0px; font-variant-numeric: normal; font-variant-east-asian: normal; font-variant-alternates: normal; font-kerning: auto; font-optical-sizing: auto; font-feature-settings: normal; font-variation-settings: normal; font-stretch: normal; line-height: normal; font-family: &amp;quot;Helvetica Neue&amp;quot;;&quot; class=&quot;p1&quot;&gt;&lt;b style=&quot;&quot;&gt;&lt;font style=&quot;font-size: 12px;&quot;&gt;&lt;font color=&quot;#ff8000&quot;&gt;enp2s0&lt;/font&gt;&lt;br&gt;&lt;/font&gt;&lt;/b&gt;&lt;/p&gt;&lt;p style=&quot;margin: 0px; font-variant-numeric: normal; font-variant-east-asian: normal; font-variant-alternates: normal; font-kerning: auto; font-optical-sizing: auto; font-feature-settings: normal; font-variation-settings: normal; font-stretch: normal; line-height: normal; font-family: &amp;quot;Helvetica Neue&amp;quot;;&quot; class=&quot;p1&quot;&gt;&lt;span style=&quot;&quot; class=&quot;s1&quot;&gt;&lt;b style=&quot;&quot;&gt;&lt;font color=&quot;#ff8000&quot; style=&quot;font-size: 12px;&quot;&gt;192.168.128.227/27&lt;/font&gt;&lt;/b&gt;&lt;/span&gt;&lt;/p&gt;" style="rounded=0;whiteSpace=wrap;html=1;fillColor=default;verticalAlign=top;align=center;" vertex="1" parent="1">
                    <mxGeometry x="53" y="480" width="170" height="40" as="geometry"/>
                </mxCell>
                <mxCell id="32" value="&lt;p style=&quot;margin: 0px; font-variant-numeric: normal; font-variant-east-asian: normal; font-variant-alternates: normal; font-kerning: auto; font-optical-sizing: auto; font-feature-settings: normal; font-variation-settings: normal; font-stretch: normal; font-size: 13px; line-height: normal; font-family: &amp;quot;Helvetica Neue&amp;quot;; text-align: start;&quot; class=&quot;p1&quot;&gt;&lt;b&gt;VETH&lt;/b&gt;&lt;/p&gt;" style="rounded=0;whiteSpace=wrap;html=1;fillColor=#d5e8d4;strokeColor=#000000;" vertex="1" parent="1">
                    <mxGeometry x="320" y="430" width="170" height="20" as="geometry"/>
                </mxCell>
                <mxCell id="39" style="edgeStyle=none;html=1;exitX=0.25;exitY=0;exitDx=0;exitDy=0;entryX=0.5;entryY=1;entryDx=0;entryDy=0;dashed=1;strokeColor=#FF0000;fontSize=12;endArrow=none;endFill=0;strokeWidth=2;startArrow=none;" edge="1" parent="1" source="63" target="36">
                    <mxGeometry relative="1" as="geometry"/>
                </mxCell>
                <mxCell id="40" style="edgeStyle=none;html=1;exitX=0.5;exitY=0;exitDx=0;exitDy=0;entryX=0.5;entryY=1;entryDx=0;entryDy=0;dashed=1;strokeColor=#FF0000;fontSize=12;endArrow=none;endFill=0;strokeWidth=2;" edge="1" parent="1" source="31" target="65">
                    <mxGeometry relative="1" as="geometry"/>
                </mxCell>
                <mxCell id="41" style="edgeStyle=none;html=1;exitX=0.75;exitY=0;exitDx=0;exitDy=0;entryX=0.5;entryY=1;entryDx=0;entryDy=0;dashed=1;strokeColor=#FF0000;fontSize=12;endArrow=none;endFill=0;strokeWidth=2;" edge="1" parent="1" source="31" target="66">
                    <mxGeometry relative="1" as="geometry"/>
                </mxCell>
                <mxCell id="31" value="&lt;p style=&quot;margin: 0px; font-variant-numeric: normal; font-variant-east-asian: normal; font-variant-alternates: normal; font-kerning: auto; font-optical-sizing: auto; font-feature-settings: normal; font-variation-settings: normal; font-stretch: normal; line-height: normal; font-family: &amp;quot;Helvetica Neue&amp;quot;;&quot; class=&quot;p1&quot;&gt;&lt;b style=&quot;&quot;&gt;&lt;font style=&quot;font-size: 12px;&quot;&gt;ran0&lt;/font&gt;&lt;/b&gt;&lt;/p&gt;" style="rounded=0;whiteSpace=wrap;html=1;fillColor=default;verticalAlign=top;align=center;" vertex="1" parent="1">
                    <mxGeometry x="320" y="390" width="170" height="40" as="geometry"/>
                </mxCell>
                <mxCell id="30" value="&lt;p style=&quot;margin: 0px; font-variant-numeric: normal; font-variant-east-asian: normal; font-variant-alternates: normal; font-kerning: auto; font-optical-sizing: auto; font-feature-settings: normal; font-variation-settings: normal; font-stretch: normal; line-height: normal; font-family: &amp;quot;Helvetica Neue&amp;quot;;&quot; class=&quot;p1&quot;&gt;&lt;b style=&quot;&quot;&gt;&lt;font color=&quot;#00ffff&quot; style=&quot;font-size: 12px;&quot;&gt;ran0_0&lt;br&gt;&lt;/font&gt;&lt;/b&gt;&lt;/p&gt;&lt;p style=&quot;margin: 0px; font-variant-numeric: normal; font-variant-east-asian: normal; font-variant-alternates: normal; font-kerning: auto; font-optical-sizing: auto; font-feature-settings: normal; font-variation-settings: normal; font-stretch: normal; line-height: normal; font-family: &amp;quot;Helvetica Neue&amp;quot;; text-align: start;&quot; class=&quot;p1&quot;&gt;&lt;b&gt;&lt;font color=&quot;#00ffff&quot;&gt;192.168.128.208/27&lt;/font&gt;&lt;/b&gt;&lt;/p&gt;" style="rounded=0;whiteSpace=wrap;html=1;fillColor=default;verticalAlign=top;align=center;" vertex="1" parent="1">
                    <mxGeometry x="320" y="450" width="170" height="40" as="geometry"/>
                </mxCell>
                <mxCell id="33" value="" style="rounded=0;whiteSpace=wrap;html=1;fillColor=none;strokeColor=#000000;" vertex="1" parent="1">
                    <mxGeometry x="80" y="110" width="1000" height="230" as="geometry"/>
                </mxCell>
                <mxCell id="34" value="UPF (k8s)" style="text;html=1;align=center;verticalAlign=middle;whiteSpace=wrap;rounded=0;fillColor=default;" vertex="1" parent="1">
                    <mxGeometry x="90" y="97" width="70" height="26.25" as="geometry"/>
                </mxCell>
                <mxCell id="35" value="&lt;p style=&quot;margin: 0px; font-variant-numeric: normal; font-variant-east-asian: normal; font-variant-alternates: normal; font-kerning: auto; font-optical-sizing: auto; font-feature-settings: normal; font-variation-settings: normal; font-stretch: normal; line-height: normal; font-family: &amp;quot;Helvetica Neue&amp;quot;;&quot; class=&quot;p1&quot;&gt;&lt;b style=&quot;&quot;&gt;&lt;font style=&quot;font-size: 12px;&quot;&gt;tun0&lt;/font&gt;&lt;/b&gt;&lt;/p&gt;&lt;p style=&quot;margin: 0px; font-variant-numeric: normal; font-variant-east-asian: normal; font-variant-alternates: normal; font-kerning: auto; font-optical-sizing: auto; font-feature-settings: normal; font-variation-settings: normal; font-stretch: normal; line-height: normal; font-family: &amp;quot;Helvetica Neue&amp;quot;;&quot; class=&quot;p1&quot;&gt;&lt;b style=&quot;&quot;&gt;&lt;font color=&quot;#001dbc&quot; style=&quot;font-size: 12px;&quot;&gt;12.1.1.1/24&lt;/font&gt;&lt;/b&gt;&lt;/p&gt;" style="rounded=0;whiteSpace=wrap;html=1;fillColor=default;verticalAlign=top;align=center;" vertex="1" parent="1">
                    <mxGeometry x="320" y="170" width="170" height="40" as="geometry"/>
                </mxCell>
                <mxCell id="36" value="&lt;p style=&quot;margin: 0px; font-variant-numeric: normal; font-variant-east-asian: normal; font-variant-alternates: normal; font-kerning: auto; font-optical-sizing: auto; font-feature-settings: normal; font-variation-settings: normal; font-stretch: normal; line-height: normal; font-family: &amp;quot;Helvetica Neue&amp;quot;;&quot; class=&quot;p1&quot;&gt;&lt;b&gt;N3&lt;/b&gt;&lt;/p&gt;&lt;p style=&quot;margin: 0px; font-variant-numeric: normal; font-variant-east-asian: normal; font-variant-alternates: normal; font-kerning: auto; font-optical-sizing: auto; font-feature-settings: normal; font-variation-settings: normal; font-stretch: normal; font-size: 13px; line-height: normal; font-family: &amp;quot;Helvetica Neue&amp;quot;; text-align: start;&quot; class=&quot;p1&quot;&gt;&lt;b&gt;192.168.128.198/27&lt;/b&gt;&lt;/p&gt;" style="rounded=0;whiteSpace=wrap;html=1;fillColor=default;verticalAlign=top;align=center;fontColor=#FF33FF;" vertex="1" parent="1">
                    <mxGeometry x="120" y="300" width="170" height="40" as="geometry"/>
                </mxCell>
                <mxCell id="37" value="&lt;p style=&quot;margin: 0px; font-variant-numeric: normal; font-variant-east-asian: normal; font-variant-alternates: normal; font-kerning: auto; font-optical-sizing: auto; font-feature-settings: normal; font-variation-settings: normal; font-stretch: normal; line-height: normal; font-family: &amp;quot;Helvetica Neue&amp;quot;;&quot; class=&quot;p1&quot;&gt;&lt;b&gt;&lt;font color=&quot;#ff33ff&quot;&gt;N4&lt;/font&gt;&lt;/b&gt;&lt;/p&gt;&lt;p style=&quot;margin: 0px; font-variant-numeric: normal; font-variant-east-asian: normal; font-variant-alternates: normal; font-kerning: auto; font-optical-sizing: auto; font-feature-settings: normal; font-variation-settings: normal; font-stretch: normal; font-size: 13px; line-height: normal; font-family: &amp;quot;Helvetica Neue&amp;quot;; text-align: start;&quot; class=&quot;p1&quot;&gt;&lt;b&gt;&lt;font color=&quot;#ff33ff&quot;&gt;192.168.128.199/27&lt;/font&gt;&lt;/b&gt;&lt;/p&gt;" style="rounded=0;whiteSpace=wrap;html=1;fillColor=default;verticalAlign=top;align=center;" vertex="1" parent="1">
                    <mxGeometry x="320" y="300" width="170" height="40" as="geometry"/>
                </mxCell>
                <mxCell id="38" value="&lt;p style=&quot;margin: 0px; font-variant-numeric: normal; font-variant-east-asian: normal; font-variant-alternates: normal; font-kerning: auto; font-optical-sizing: auto; font-feature-settings: normal; font-variation-settings: normal; font-stretch: normal; line-height: normal; font-family: &amp;quot;Helvetica Neue&amp;quot;;&quot; class=&quot;p1&quot;&gt;&lt;b&gt;N6&lt;/b&gt;&lt;/p&gt;&lt;p style=&quot;margin: 0px; font-variant-numeric: normal; font-variant-east-asian: normal; font-variant-alternates: normal; font-kerning: auto; font-optical-sizing: auto; font-feature-settings: normal; font-variation-settings: normal; font-stretch: normal; font-size: 13px; line-height: normal; font-family: &amp;quot;Helvetica Neue&amp;quot;; text-align: start;&quot; class=&quot;p1&quot;&gt;&lt;b&gt;&lt;font&gt;192.168.128.200/27&lt;/font&gt;&lt;/b&gt;&lt;/p&gt;" style="rounded=0;whiteSpace=wrap;html=1;fillColor=default;verticalAlign=top;align=center;fontColor=#FF33FF;" vertex="1" parent="1">
                    <mxGeometry x="520" y="300" width="170" height="40" as="geometry"/>
                </mxCell>
                <mxCell id="43" value="&lt;font style=&quot;font-size: 12px;&quot;&gt;&lt;span style=&quot;border-color: var(--border-color); font-family: &amp;quot;Helvetica Neue&amp;quot;;&quot;&gt;&lt;font style=&quot;font-size: 12px;&quot;&gt;&lt;b style=&quot;&quot;&gt;&lt;u style=&quot;&quot;&gt;Routes&lt;/u&gt;&lt;br&gt;&lt;font color=&quot;#001dbc&quot;&gt;12.1.1.0/24&lt;/font&gt;&lt;/b&gt;&lt;/font&gt;&lt;/span&gt;&lt;span style=&quot;font-family: &amp;quot;Helvetica Neue&amp;quot;;&quot;&gt;&amp;nbsp;via&amp;nbsp;&lt;/span&gt;&lt;span style=&quot;border-color: var(--border-color); font-family: &amp;quot;Helvetica Neue&amp;quot;;&quot; class=&quot;s1&quot;&gt;&lt;span style=&quot;border-color: var(--border-color);&quot;&gt;&lt;font style=&quot;font-size: 12px;&quot; color=&quot;#ff8000&quot;&gt;192.168.128.227&lt;/font&gt;&amp;nbsp;dev &lt;font style=&quot;font-size: 12px;&quot; color=&quot;#009900&quot;&gt;demo-fake&lt;/font&gt;&lt;br&gt;&lt;p style=&quot;margin: 0px; font-variant-numeric: normal; font-variant-east-asian: normal; font-variant-alternates: normal; font-kerning: auto; font-optical-sizing: auto; font-feature-settings: normal; font-variation-settings: normal; font-stretch: normal; line-height: normal;&quot; class=&quot;p1&quot;&gt;192.168.128.0/24 via 192.168.128.225 dev &lt;font style=&quot;font-size: 12px;&quot; color=&quot;#009900&quot;&gt;demo-fake&lt;/font&gt;&lt;/p&gt;&lt;p style=&quot;margin: 0px; font-variant-numeric: normal; font-variant-east-asian: normal; font-variant-alternates: normal; font-kerning: auto; font-optical-sizing: auto; font-feature-settings: normal; font-variation-settings: normal; font-stretch: normal; line-height: normal;&quot; class=&quot;p1&quot;&gt;&lt;font color=&quot;#ff33ff&quot;&gt;192.168.128.192/27&lt;/font&gt; via &lt;font color=&quot;#ff8000&quot;&gt;192.168.128.227&lt;/font&gt; dev &lt;font color=&quot;#009900&quot;&gt;demo-fake&lt;/font&gt;&lt;/p&gt;&lt;/span&gt;&lt;/span&gt;&lt;/font&gt;" style="text;html=1;strokeColor=none;fillColor=none;align=left;verticalAlign=middle;whiteSpace=wrap;rounded=0;fontSize=12;" vertex="1" parent="1">
                    <mxGeometry x="720" y="592.25" width="340" height="84.5" as="geometry"/>
                </mxCell>
                <mxCell id="49" value="&lt;font style=&quot;font-size: 12px;&quot;&gt;&lt;span style=&quot;border-color: var(--border-color); font-family: &amp;quot;Helvetica Neue&amp;quot;;&quot;&gt;&lt;font style=&quot;font-size: 12px;&quot;&gt;&lt;b style=&quot;&quot;&gt;&lt;u style=&quot;&quot;&gt;Routes&lt;/u&gt;&lt;br&gt;&lt;/b&gt;&lt;b style=&quot;border-color: var(--border-color);&quot;&gt;&lt;font style=&quot;border-color: var(--border-color);&quot;&gt;&lt;font color=&quot;#001dbc&quot;&gt;12.1.1.0/24&lt;/font&gt;&lt;span style=&quot;color: rgb(0, 0, 0); font-size: 13px; background-color: initial; font-weight: normal;&quot;&gt;&amp;nbsp;via &lt;/span&gt;&lt;span style=&quot;font-size: 13px; background-color: initial; font-weight: normal;&quot;&gt;&lt;font color=&quot;#ff33ff&quot;&gt;192.168.128.200&lt;/font&gt;&lt;/span&gt;&lt;span style=&quot;color: rgb(0, 0, 0); font-size: 13px; background-color: initial; font-weight: normal;&quot;&gt; dev &lt;/span&gt;&lt;span style=&quot;font-size: 13px; background-color: initial; font-weight: normal;&quot;&gt;&lt;font color=&quot;#00ffff&quot;&gt;ran0_0&lt;/font&gt;&lt;/span&gt;&lt;/font&gt;&lt;/b&gt;&lt;/font&gt;&lt;/span&gt;&lt;span style=&quot;border-color: var(--border-color); font-family: &amp;quot;Helvetica Neue&amp;quot;;&quot; class=&quot;s1&quot;&gt;&lt;span style=&quot;border-color: var(--border-color);&quot;&gt;&lt;br&gt;&lt;p style=&quot;margin: 0px; font-variant-numeric: normal; font-variant-east-asian: normal; font-variant-alternates: normal; font-kerning: auto; font-optical-sizing: auto; font-feature-settings: normal; font-variation-settings: normal; font-stretch: normal; line-height: normal;&quot; class=&quot;p1&quot;&gt;192.168.128.0/24 via &lt;font color=&quot;#009900&quot;&gt;192.168.128.226&lt;/font&gt; dev &lt;font color=&quot;#ff8000&quot; style=&quot;font-size: 12px;&quot;&gt;enp2s0&lt;/font&gt;&lt;/p&gt;&lt;/span&gt;&lt;/span&gt;&lt;/font&gt;" style="text;html=1;strokeColor=none;fillColor=none;align=left;verticalAlign=middle;whiteSpace=wrap;rounded=0;fontSize=12;" vertex="1" parent="1">
                    <mxGeometry x="720" y="390" width="340" height="84.5" as="geometry"/>
                </mxCell>
                <mxCell id="50" value="&lt;font style=&quot;&quot;&gt;&lt;span style=&quot;border-color: var(--border-color); font-family: &amp;quot;Helvetica Neue&amp;quot;;&quot;&gt;&lt;font style=&quot;&quot;&gt;&lt;b style=&quot;font-size: 12px;&quot;&gt;&lt;u style=&quot;&quot;&gt;Routes&lt;/u&gt;&lt;br&gt;&lt;/b&gt;&lt;span style=&quot;border-color: var(--border-color);&quot;&gt;&lt;font style=&quot;border-color: var(--border-color); font-size: 12px;&quot;&gt;&lt;span style=&quot;background-color: initial;&quot;&gt;&lt;font color=&quot;#999900&quot;&gt;138.96.245.55/32&lt;/font&gt;&lt;/span&gt;&lt;span style=&quot;background-color: initial; font-size: 13px;&quot;&gt;&amp;nbsp;via&amp;nbsp;&lt;/span&gt;&lt;b style=&quot;background-color: initial; border-color: var(--border-color);&quot;&gt;&lt;font style=&quot;border-color: var(--border-color);&quot; color=&quot;#00ffff&quot;&gt;192.168.128.208&lt;/font&gt;&lt;/b&gt;&lt;span style=&quot;background-color: initial; font-size: 13px;&quot;&gt;&amp;nbsp;dev &lt;/span&gt;&lt;span style=&quot;background-color: initial; font-size: 13px;&quot;&gt;&lt;font color=&quot;#ff33ff&quot;&gt;N6&lt;/font&gt;&lt;/span&gt;&lt;span style=&quot;background-color: initial;&quot;&gt;&lt;b style=&quot;&quot;&gt;&lt;font color=&quot;#999900&quot;&gt;&lt;br&gt;&lt;/font&gt;&lt;/b&gt;&lt;/span&gt;&lt;/font&gt;&lt;/span&gt;&lt;/font&gt;&lt;/span&gt;&lt;/font&gt;" style="text;html=1;strokeColor=none;fillColor=none;align=left;verticalAlign=middle;whiteSpace=wrap;rounded=0;fontSize=12;" vertex="1" parent="1">
                    <mxGeometry x="720" y="182.75" width="340" height="84.5" as="geometry"/>
                </mxCell>
                <mxCell id="56" value="&lt;p style=&quot;margin: 0px; font-variant-numeric: normal; font-variant-east-asian: normal; font-variant-alternates: normal; font-kerning: auto; font-optical-sizing: auto; font-feature-settings: normal; font-variation-settings: normal; font-stretch: normal; line-height: normal; font-family: &amp;quot;Helvetica Neue&amp;quot;;&quot; class=&quot;p1&quot;&gt;&lt;font style=&quot;font-size: 12px;&quot;&gt;&lt;b&gt;ens10f0np0&lt;br&gt;&lt;/b&gt;&lt;/font&gt;&lt;/p&gt;&lt;p style=&quot;margin: 0px; font-variant-numeric: normal; font-variant-east-asian: normal; font-variant-alternates: normal; font-kerning: auto; font-optical-sizing: auto; font-feature-settings: normal; font-variation-settings: normal; font-stretch: normal; line-height: normal; font-family: &amp;quot;Helvetica Neue&amp;quot;;&quot; class=&quot;p1&quot;&gt;&lt;font color=&quot;#999900&quot; style=&quot;font-size: 12px;&quot;&gt;138.96.245.55/24&lt;/font&gt;&lt;/p&gt;" style="rounded=0;whiteSpace=wrap;html=1;fillColor=default;verticalAlign=top;align=center;" vertex="1" parent="1">
                    <mxGeometry x="414" y="710" width="170" height="40" as="geometry"/>
                </mxCell>
                <mxCell id="57" value="&lt;div style=&quot;text-align: left;&quot;&gt;&lt;span style=&quot;background-color: initial;&quot;&gt;&lt;font face=&quot;Helvetica Neue&quot;&gt;internet&lt;/font&gt;&lt;/span&gt;&lt;/div&gt;" style="ellipse;shape=cloud;whiteSpace=wrap;html=1;strokeColor=#000000;fontSize=12;fontColor=#000000;fillColor=default;" vertex="1" parent="1">
                    <mxGeometry x="920" y="845" width="250" height="130" as="geometry"/>
                </mxCell>
                <mxCell id="61" style="edgeStyle=none;html=1;strokeColor=#000000;strokeWidth=2;fontSize=12;fontColor=#001DBC;endArrow=none;endFill=0;rounded=0;exitX=0.501;exitY=0.625;exitDx=0;exitDy=0;exitPerimeter=0;dashed=1;" edge="1" parent="1" source="60" target="36">
                    <mxGeometry relative="1" as="geometry"/>
                </mxCell>
                <mxCell id="60" value="&lt;font color=&quot;#001dbc&quot;&gt;&lt;b&gt;UE&lt;br&gt;12.1.1.0/24&lt;br&gt;&lt;/b&gt;&lt;/font&gt;" style="ellipse;shape=cloud;whiteSpace=wrap;html=1;strokeColor=#000000;fontSize=12;fontColor=#999900;fillColor=default;" vertex="1" parent="1">
                    <mxGeometry x="145" y="-140" width="120" height="80" as="geometry"/>
                </mxCell>
                <mxCell id="64" value="" style="edgeStyle=none;html=1;exitX=0.25;exitY=0;exitDx=0;exitDy=0;entryX=0.5;entryY=1;entryDx=0;entryDy=0;dashed=1;strokeColor=#FF0000;fontSize=12;endArrow=none;endFill=0;strokeWidth=2;" edge="1" parent="1" source="31" target="63">
                    <mxGeometry relative="1" as="geometry">
                        <mxPoint x="362.5" y="390" as="sourcePoint"/>
                        <mxPoint x="205" y="340" as="targetPoint"/>
                    </mxGeometry>
                </mxCell>
                <mxCell id="63" value="&lt;p style=&quot;margin: 0px; font-variant-numeric: normal; font-variant-east-asian: normal; font-variant-alternates: normal; font-kerning: auto; font-optical-sizing: auto; font-feature-settings: normal; font-variation-settings: normal; font-stretch: normal; font-size: 13px; line-height: normal; font-family: &amp;quot;Helvetica Neue&amp;quot;; text-align: start;&quot; class=&quot;p1&quot;&gt;&lt;b&gt;MULTUS&lt;/b&gt;&lt;/p&gt;" style="rounded=0;whiteSpace=wrap;html=1;fillColor=#dae8fc;strokeColor=#000000;" vertex="1" parent="1">
                    <mxGeometry x="120" y="340" width="170" height="20" as="geometry"/>
                </mxCell>
                <mxCell id="65" value="&lt;p style=&quot;margin: 0px; font-variant-numeric: normal; font-variant-east-asian: normal; font-variant-alternates: normal; font-kerning: auto; font-optical-sizing: auto; font-feature-settings: normal; font-variation-settings: normal; font-stretch: normal; font-size: 13px; line-height: normal; font-family: &amp;quot;Helvetica Neue&amp;quot;; text-align: start;&quot; class=&quot;p1&quot;&gt;&lt;b&gt;MULTUS&lt;/b&gt;&lt;/p&gt;" style="rounded=0;whiteSpace=wrap;html=1;fillColor=#dae8fc;strokeColor=#000000;" vertex="1" parent="1">
                    <mxGeometry x="320" y="340" width="170" height="20" as="geometry"/>
                </mxCell>
                <mxCell id="66" value="&lt;p style=&quot;margin: 0px; font-variant-numeric: normal; font-variant-east-asian: normal; font-variant-alternates: normal; font-kerning: auto; font-optical-sizing: auto; font-feature-settings: normal; font-variation-settings: normal; font-stretch: normal; font-size: 13px; line-height: normal; font-family: &amp;quot;Helvetica Neue&amp;quot;; text-align: start;&quot; class=&quot;p1&quot;&gt;&lt;b&gt;MULTUS&lt;/b&gt;&lt;/p&gt;" style="rounded=0;whiteSpace=wrap;html=1;fillColor=#dae8fc;strokeColor=#000000;" vertex="1" parent="1">
                    <mxGeometry x="520" y="340" width="170" height="20" as="geometry"/>
                </mxCell>
                <mxCell id="67" value="&lt;p class=&quot;p1&quot;&gt;&lt;span class=&quot;s1&quot;&gt;&lt;b style=&quot;color: rgb(0, 0, 0);&quot;&gt;&lt;u&gt;Routes&lt;/u&gt;&lt;/b&gt;&lt;br&gt;&lt;font color=&quot;#ff33ff&quot;&gt;192.168.128.192/27&lt;/font&gt;&lt;font color=&quot;#000000&quot;&gt; via &lt;/font&gt;&lt;font color=&quot;#009900&quot;&gt;192.168.128.226&lt;/font&gt;&lt;/span&gt;&lt;/p&gt;" style="text;whiteSpace=wrap;html=1;fontSize=12;fontColor=#001DBC;" vertex="1" parent="1">
                    <mxGeometry x="280" y="880" width="350" height="60" as="geometry"/>
                </mxCell>
                <mxCell id="74" style="edgeStyle=none;rounded=0;html=1;exitX=0.5;exitY=0;exitDx=0;exitDy=0;entryX=0.5;entryY=1;entryDx=0;entryDy=0;strokeColor=#000000;strokeWidth=2;fontSize=12;fontColor=#009900;endArrow=none;endFill=0;" edge="1" parent="1" source="69" target="13">
                    <mxGeometry relative="1" as="geometry"/>
                </mxCell>
                <mxCell id="69" value="&lt;p class=&quot;p1&quot;&gt;TF 0/28&lt;br&gt;&lt;span style=&quot;background-color: initial;&quot;&gt;192.168.128.225/27&lt;/span&gt;&lt;/p&gt;" style="text;whiteSpace=wrap;html=1;fontSize=12;fontColor=#000000;fontStyle=1;align=center;strokeColor=default;verticalAlign=middle;fillColor=default;" vertex="1" parent="1">
                    <mxGeometry x="48" y="840" width="180" height="40" as="geometry"/>
                </mxCell>
                <mxCell id="73" style="edgeStyle=none;rounded=0;html=1;exitX=1;exitY=0.5;exitDx=0;exitDy=0;dashed=1;strokeColor=#000000;strokeWidth=2;fontSize=12;fontColor=#009900;endArrow=none;endFill=0;entryX=0.875;entryY=0.5;entryDx=0;entryDy=0;entryPerimeter=0;" edge="1" parent="1" source="72" target="53">
                    <mxGeometry relative="1" as="geometry">
                        <mxPoint x="755" y="910" as="targetPoint"/>
                    </mxGeometry>
                </mxCell>
                <mxCell id="70" value="&lt;p class=&quot;p1&quot;&gt;HG 0/51:1&lt;br&gt;&lt;span style=&quot;background-color: initial;&quot;&gt;192.168.128.129/27&lt;/span&gt;&lt;/p&gt;" style="text;whiteSpace=wrap;html=1;fontSize=12;fontColor=#000000;fontStyle=1;align=center;strokeColor=default;verticalAlign=middle;fillColor=default;" vertex="1" parent="1">
                    <mxGeometry x="48" y="940" width="180" height="40" as="geometry"/>
                </mxCell>
                <mxCell id="53" value="&lt;span style=&quot;font-family: &amp;quot;Helvetica Neue&amp;quot;; text-align: left;&quot;&gt;192.168.128.0/24&lt;/span&gt;" style="ellipse;shape=cloud;whiteSpace=wrap;html=1;strokeColor=#000000;fontSize=12;fontColor=#000000;fillColor=default;" vertex="1" parent="1">
                    <mxGeometry x="610" y="855" width="250" height="130" as="geometry"/>
                </mxCell>
                <mxCell id="62" style="edgeStyle=none;html=1;exitX=0;exitY=0.5;exitDx=0;exitDy=0;strokeColor=#000000;strokeWidth=2;fontSize=12;fontColor=#001DBC;endArrow=none;endFill=0;rounded=0;dashed=1;" edge="1" parent="1" source="35">
                    <mxGeometry relative="1" as="geometry">
                        <mxPoint x="210" y="310" as="targetPoint"/>
                        <Array as="points">
                            <mxPoint x="248" y="190"/>
                            <mxPoint x="248" y="310"/>
                        </Array>
                    </mxGeometry>
                </mxCell>
            </root>
        </mxGraphModel>
    </diagram>
</mxfile>